# xmcd
#
# Track frame offsets: 
#        150
#        14035
#        28640
#        43642
#        64357
#        73672
#        91880
#        110107
#        122540
#        145070
#        157495
#        175585
#        187380
#        204682
#        222890
#        231152
#
# Disc length: 3371 seconds
#
# Revision: 2
# Processed by: cddbd v1.5.2PL0 Copyright (c) Steve Scherf et al.
# Submitted via: ExactAudioCopy v0.99pb4
#
DISCID=f80d2910
DTITLE=Yuki Kajiura - EAT-MAN Image Soundtrack ACT-2
DYEAR=1997
DGENRE=Anime
TTITLE0=Silencio
TTITLE1=Theme
TTITLE2=Light Of The Night
TTITLE3=System 0212
TTITLE4=Digital Flower
TTITLE5=Do You Believe In Dreams ?
TTITLE6=WALK THIS WAY (Full Size Version)
TTITLE7=Pleasure
TTITLE8=Lavion
TTITLE9=Cold Fire
TTITLE10=Elastic Plastic
TTITLE11=(Welcome Into) Conflict
TTITLE12=The Impression Of The Sea
TTITLE13=Songs With No Words
TTITLE14=Flower
TTITLE15=Chiisana Koi No Melody (Original Album Version)
EXTD=
EXTT0=
EXTT1=
EXTT2=
EXTT3=
EXTT4=
EXTT5=
EXTT6=
EXTT7=
EXTT8=
EXTT9=
EXTT10=
EXTT11=
EXTT12=
EXTT13=
EXTT14=
EXTT15=
PLAYORDER=
